<svg xmlns="http://www.w3.org/2000/svg" xmlns:xlink="http://www.w3.org/1999/xlink" width="300" height="300" viewBox="493135.41909599997 5563780.794696 127378.59560799977 195746.5009080004" preserveAspectRatio="xMinYMin meet"><g transform="matrix(1,0,0,-1,0,11323308.090300001)"><g><path fill-rule="evenodd" fill="#66cc99" stroke="#555555" stroke-width="1304.9766727200026" opacity="0.6" d="M 508012.2664999999,5746445.996200001 L 509027.44120000023,5746432.211200001 L 509244.4759999998,5746655.3796999995 L 509310.1978000002,5746906.040100001 L 509363.88350000046,5747154.833799999 L 509364.10929999966,5747221.334000001 L 509378.2301000003,5747221.3102 L 509653.95550000016,5747220.866900001 L 509703.8487,5747221.4407 L 509744.6813000003,5747221.910499999 L 509825.1693000002,5747222.8376 L 510831.82820000034,5747234.836300001 L 511760.8635999998,5747245.883099999 L 512199.2344000004,5747250.3332 L 513133.6607999997,5747259.8037 L 514205.7888000002,5747270.636700001 L 514227.6261999998,5747270.856899999 L 514240.0192,5748105.759299999 L 514791.45440000016,5748103.2324 L 515031.0499,5748102.136 L 515035.85979999974,5748571.487299999 L 515039.3691999996,5748913.990900001 L 515069.31350000016,5748912.8729 L 515455.9528999999,5748898.4332 L 515511.9068999998,5748896.3423999995 L 515795.0586000001,5748885.766100001 L 515801.0262000002,5748889.9723000005 L 515823.9347000001,5748892.1658 L 515839.8289999999,5748908.680600001 L 515845.71449999977,5749416.9868 L 515844.5415000003,5749521.6427 L 515842.32380000036,5749719.5769 L 515962.4036999997,5749723.9892 L 516016.1952999998,5749725.9662999995 L 516052.4757000003,5749727.298900001 L 516643.3513000002,5749749.006200001 L 516637.2598000001,5750374.9551 L 516636.82859999966,5750419.389 L 516635.69959999993,5750535.4354 L 516635.56099999975,5750549.6676 L 516640.4422000004,5750549.6775 L 516691.7779000001,5750549.772299999 L 516787.94209999964,5750548.9761 L 516855.35030000005,5750548.418099999 L 517069.37210000027,5750546.6478 L 518116.05030000024,5750537.9693 L 518391.5895999996,5750535.678400001 L 519913.7653999999,5750513.534 L 521815.1090000002,5750498.279999999 L 521875.5861999998,5750496.4461 L 522048.9709999999,5750491.185799999 L 522244.34640000015,5750485.2622 L 522449.80399999954,5750479.0265 L 522453.0979000004,5750268.692 L 522453.76269999985,5750226.377 L 522519.65469999984,5749745.335100001 L 522907.17760000005,5749751.5502 L 523172.30510000046,5749745.5276 L 523805.18560000043,5749739.8029 L 523924.1710999999,5749740.013 L 523976.3334999997,5749740.103 L 524432.9419999998,5749740.8958 L 524474.0767000001,5749740.9681 L 524609.0114000002,5749741.201300001 L 524642.7527000001,5749741.2578 L 524793.392,5749758.5942 L 524841.119,5749755.5263 L 524869.3602999998,5749753.7096 L 524904.5374999996,5749751.447799999 L 525571.7254999997,5749742.851600001 L 525605.9660999998,5749742.908600001 L 526742.4407000002,5749744.821900001 L 526876.1213999996,5749745.042099999 L 527057.2823999999,5749741.369100001 L 529701.1972000003,5749748.771299999 L 529711.8671000004,5748981.626700001 L 529714.3613,5748729.184900001 L 529715.0489999996,5748678.4574 L 529716.0745000001,5748602.9070999995 L 529719.0846999995,5748381.258099999 L 529720.6414000001,5748266.4706 L 529722.4561999999,5748132.726600001 L 529722.8624,5748102.725 L 529747.4861000003,5748115.785 L 529890.7693999996,5748282.640799999 L 530044.7873,5748398.9399 L 530119.5724999998,5748409.658399999 L 530165.4188000001,5748401.778999999 L 530211.0564000001,5748362.013900001 L 530280.0909000002,5748373.9827 L 530336.2900999999,5748466.8596 L 530476.5635000002,5748691.540200001 L 530605.4544000002,5748757.840299999 L 530772.5138999997,5748742.8573 L 530877.5497000003,5748775.6461 L 530997.1139000002,5748828.577099999 L 531047.4686000003,5748889.8868 L 531048.5258,5748937.0063000005 L 531030.1809,5748993.8749 L 531104.7116,5749052.7333 L 531265.7688999996,5749093.3005 L 531358.9408,5749098.2806 L 531490.9009999996,5749085.501700001 L 531827.5279000001,5748979.6809 L 531995.8060999997,5749053.609999999 L 532102.994,5749256.583000001 L 532161.2057999996,5749316.3903 L 532349.9097999996,5749418.415200001 L 532522.3245000001,5749398.6614 L 532667.9378000004,5749398.779200001 L 532826.9539000001,5749422.177300001 L 533054.5888999999,5749433.1908 L 533127.6832999997,5749464.9344 L 533190.0078999996,5749569.3345 L 533275.7087000003,5749743.399800001 L 533367.2471000003,5749846.391899999 L 533412.6556000002,5749883.945800001 L 533458.0099,5749878.873400001 L 533505.7999999998,5749835.0111 L 533579.2051999997,5749873.613 L 533699.7154000001,5749894.302100001 L 533874.7289000005,5750167.353599999 L 534029.5307,5750441.778100001 L 534098.1644000001,5750685.5416 L 534086.4117,5750759.762 L 534112.4565000003,5750819.540100001 L 534075.2569000004,5750963.895400001 L 534081.6464,5751123.6614 L 534088.5976,5751187.7765999995 L 534140.5796999997,5751298.302300001 L 534268.7680000002,5751451.166999999 L 534334.5632999996,5751443.0417 L 534350.9493000004,5751441.759400001 L 534373.9161,5751464.4954 L 534443.1457000002,5751536.7717 L 534508.8631999996,5751600.4242 L 534535.6321999999,5751648.444499999 L 534503.5436000004,5751729.985200001 L 534425.949,5751811.236199999 L 534359.6314000003,5751838.7289 L 534359.3526999997,5751838.8454 L 534195.0499999998,5751925.5002999995 L 534155.5942000002,5751972.245999999 L 534150.6836000001,5752114.3368 L 534258.6140999999,5752197.099199999 L 534357.1699999999,5752176.4439 L 534357.5982999997,5752135.6708 L 534364.1994000003,5752136.1395 L 534391.4082000004,5752143.8857 L 534427.8510999996,5752149.341499999 L 534476.0796999997,5752151.1734 L 534525.0166999996,5752152.7404 L 534610.5373999998,5752155.4811 L 534663.8284,5752151.5264 L 534768.8756999997,5752151.612 L 534818.0958000002,5752156.9452 L 534882.7055000002,5752170.4605 L 534920.0597000001,5752169.8314 L 535080.8655000003,5752194.3487 L 535157.784,5752228.831800001 L 535186.6413000003,5752245.268200001 L 535759.8616000004,5752251.2074 L 535811.6579999998,5752251.4013 L 536018.7241000002,5752275.9911 L 536021.5576999998,5752275.955600001 L 536051.3130000001,5752275.5921 L 536132.5433999998,5752275.488500001 L 536818.9336999999,5752276.294399999 L 537045.0597999999,5752276.351 L 537757.6853,5752277.4252 L 537769.3071999997,5751125.2206999995 L 537769.6475,5751101.2195999995 L 537769.4252000004,5751093.2337 L 537775.2077000001,5750264.6346 L 537776.3054999998,5750107.423699999 L 537776.4573999997,5749858.5111 L 537775.8015999999,5749834.534 L 537778.6365,5749246.681399999 L 537778.8339999998,5749035.7609 L 537850.8054999998,5749035.7807 L 537875.9464999996,5749041.098099999 L 537966.6824000003,5749105.579500001 L 538000.9512,5749115.6247000005 L 538028.6667999998,5749105.8607 L 538103.1286000004,5749050.848200001 L 538139.8129000003,5749039.8312 L 538255.5537999999,5749039.7828 L 538582.6397000002,5749039.669 L 538587.5186999999,5749035.525599999 L 538587.6344999997,5749030.4791 L 539407.756,5749037.5123 L 541026.0044999998,5749056.9308 L 542658.0284000002,5749066.861 L 544281.9462000001,5749126.293199999 L 544537.9743999997,5749122.3443 L 545906.4129999997,5749101.2148 L 547218.2244999995,5749114.142100001 L 547528.1102999998,5749114.616599999 L 547919.5077999998,5749109.932700001 L 547936.9864999996,5749116.3697999995 L 547959.8932999996,5749117.6829 L 548043.1139000002,5749122.447799999 L 548053.4757000003,5749122.309599999 L 548054.6294,5749122.293400001 L 548056.4332999997,5749122.2707 L 548057.6336000003,5749122.253799999 L 548058.9625000004,5749122.2392 L 548060.8450999996,5749122.2125 L 548063.2638999997,5749122.179199999 L 548065.0532999998,5749122.154100001 L 548067.3504999997,5749122.1241 L 548069.7345000003,5749122.093 L 548072.1715000002,5749122.0604 L 548073.2501999997,5749122.046700001 L 548073.4885999998,5749122.044500001 L 548073.5972999996,5749122.0425 L 548073.7232999997,5749122.0439 L 548074.1388999997,5749122.038000001 L 548075.4727999996,5749122.034600001 L 548077.4660999998,5749122.0251 L 548079.716,5749122.0142 L 548082.5802999996,5749122.001700001 L 548089.2999999998,5749121.966700001 L 548094.8771000002,5749121.9429 L 548101.2351000002,5749121.909700001 L 548108.0395,5749121.879000001 L 548114.3509999998,5749121.8467 L 548119.9890999999,5749121.8244 L 548131.2385999998,5749121.7697 L 548142.2662000004,5749121.714199999 L 548155.5883999998,5749121.6523 L 548467.8493999997,5749132.1217 L 548479.9417000003,5749132.219699999 L 548506.7483999999,5749132.431700001 L 548514.1913000001,5749132.4826 L 548521.6416999996,5749132.2125 L 548627.0307,5749128.3873 L 549154.0170999998,5749135.891100001 L 549198.9100000001,5749132.6511 L 550552.7445999999,5749147.4087000005 L 550776.6971000005,5749149.2544 L 550944.6601999998,5749150.638699999 L 552399.4473000001,5749165.614499999 L 552572.4654000001,5749168.850500001 L 554009.3388,5749182.818600001 L 554023.2208000002,5749182.9542 L 554437.1630999995,5749187.5603 L 554448.1568999998,5749187.2585 L 555365.8776000002,5749192.011399999 L 555641.9331,5749198.419299999 L 555650.3085000003,5748921.3122000005 L 555649.7699999996,5748574.476399999 L 555664.3076,5747612.5098 L 555664.5963000003,5747583.394099999 L 557286.0933999997,5747582.622099999 L 557287.1781000001,5747524.916999999 L 557284.2441999996,5747491.015799999 L 557290.0449999999,5747301.9416000005 L 557305.8000999996,5745984.0977 L 558439.6152999997,5745995.928099999 L 558928.5439999998,5746001.476600001 L 560555.4411000004,5746024.732799999 L 561933.3273999998,5746043.844900001 L 562180.2187000001,5746044.0579 L 563807.0395999998,5746065.311899999 L 565491.8370000003,5746086.983200001 L 565540.8066999996,5746086.6361 L 565592.5471000001,5746078.2181 L 565650.3206000002,5746058.8375 L 565683.7759999996,5746051.715 L 565754.8547999999,5746055.7596 L 565817.5959999999,5746080.1241 L 565824.5631999997,5746082.8287 L 565866.7333000004,5746089.674699999 L 566992.6103999997,5746104.7026 L 567007.6158999996,5746105.292300001 L 567045.1531999996,5746105.261299999 L 567059.3196999999,5746104.873500001 L 567083.5713999998,5746105.209000001 L 567110.5724,5746105.459000001 L 568554.4256999996,5746125.7542 L 568682.8642999995,5746125.8771 L 568802.6594000002,5746125.9980999995 L 569001.0076000001,5746121.8883 L 569831.6103999997,5746102.529100001 L 570638.7257000003,5746091.882999999 L 570712.9562999997,5746092.9121 L 572267.5658,5746114.412599999 L 572798.5849000001,5746120.5977 L 573574.3003000002,5746135.2425 L 573718.4598000003,5746134.1591 L 573897.5310000004,5746135.006999999 L 574105.2668000003,5746142.4232 L 574547.3327000001,5746146.7249 L 574687.2414999995,5746147.493000001 L 575032.5140000004,5746149.3868 L 575119.4775999999,5746151.166099999 L 575153.2898000004,5746155.0337000005 L 575517.2109000003,5746161.0386 L 577141.1731000002,5746182.2991 L 578771.9123,5746207.93 L 579910.7082000002,5746226.519099999 L 580389.5948000001,5746234.8497 L 580389.7676999997,5747426.9213 L 580385.8723999998,5747896.9048999995 L 581987.3070999999,5747884.1985 L 583709.6464,5747906.137 L 585241.3679999998,5747934.478499999 L 585845.3754000003,5747942.222200001 L 586864.2632999998,5747955.261600001 L 588485.716,5747987.111199999 L 588516.2346000001,5746370.5184 L 588568.1464999998,5743132.8565 L 588627.5275999997,5739903.613 L 588685.1320000002,5736687.2907 L 588685.8009000001,5736670.9103 L 588686.5493999999,5736643.333699999 L 588692.0131000001,5736343.406400001 L 588692.9929999998,5736341.2366 L 588692.9589999998,5736316.123500001 L 588728.8474000003,5735114.2651 L 588434.3976999996,5735119.573100001 L 588275.3854999999,5735122.4394000005 L 587135.1531999996,5735142.9607 L 587142.9337999998,5734995.779200001 L 587173.7555999998,5734457.5889 L 587218.9888000004,5733409.523 L 587236.2034,5731868.0767 L 587236.3668999998,5731853.535599999 L 587879.9868000001,5731855.534399999 L 588014.7395000001,5731855.9518 L 588014.7527000001,5731713.5944 L 588014.7950999998,5731227.2509 L 588014.8300999999,5730806.5634 L 588014.6350999996,5730489.272600001 L 587984.2461000001,5730202.944599999 L 588799.2709999997,5730215.560799999 L 588812.6975999996,5729660.8792 L 588829.8981999997,5728599.1105 L 588831.7246000003,5728486.4794 L 589514.9861000003,5728544.307 L 590202.5778999999,5728563.289799999 L 590459.4654999999,5728569.379799999 L 590484.5417,5727188.6218 L 590489.8968000002,5727163.8961 L 590506.7794000003,5727129.7949 L 590555.2373000002,5727067.4025 L 590584.5449999999,5727043.999 L 590627.6557,5727024.3467999995 L 590658.2451999998,5727014.009099999 L 590478.0538999997,5727010.783299999 L 590518.4271999998,5724227.395 L 590518.2119000005,5723994.0748 L 590547.2750000004,5723782.4202 L 591536.7594999997,5723787.636700001 L 592184.6331000002,5723799.140699999 L 593816.3706,5723827.579399999 L 593818.8902000003,5723785.055600001 L 593820.0367,5723623.676899999 L 593835.0800999999,5722786.0951000005 L 593837.7384000001,5722719.811799999 L 593841.1408000002,5722592.512599999 L 593846.8262,5722309.039999999 L 593849.2977,5722277.1819 L 593850.3798000002,5722226.4366 L 593852.2577,5722062.913799999 L 593853.4585999995,5722041.0086 L 593856.2232999997,5722021.865700001 L 593853.5959000001,5722002.911800001 L 593853.0082,5721946.9431 L 593854.7655999996,5721856.936899999 L 593857.4981000004,5721816.307700001 L 593858.2400000002,5721780.192600001 L 593857.1893999996,5721750.335999999 L 593853.9430999998,5721720.362400001 L 593852.1906000003,5721689.982100001 L 593854.0840999996,5721673.237199999 L 593865.0115999999,5721647.708000001 L 593879.3717,5721621.875600001 L 593892.5208,5721604.7611 L 593906.1579999998,5721592.082599999 L 593950.6834000004,5721563.9975000005 L 594001.0698999995,5721526.9472 L 594051.8923000004,5721490.896500001 L 594061.9888000004,5721480.464500001 L 594070.2033000002,5721468.709100001 L 594075.8843,5721454.1241999995 L 594078.9552999996,5721438.1688 L 594078.0653999997,5721418.823799999 L 594072.4790000003,5721396.045299999 L 594056.4786,5721349.263800001 L 594050.2043000003,5721334.005000001 L 594034.2871000003,5721295.2961 L 594016.4088000003,5721265.0065 L 593986.2940999996,5721226.2345 L 593903.4176000003,5721134.2513999995 L 593886.0241,5721117.4265 L 593878.2909000004,5721106.996300001 L 593871.5859000003,5721095.6293 L 593867.2352999998,5721081.4694 L 593866.1419000002,5721065.7817 L 593868.7421000004,5721006.3473000005 L 593871.6107000001,5720872.4111 L 593873.6703000003,5720774.6042 L 593874.0990000004,5720653.245100001 L 593875.1061000004,5720592.335000001 L 593897.9582000002,5720099.7468 L 593925.2836999996,5719335.529100001 L 593990.2248,5717519.2042 L 593996.2785,5717349.890900001 L 593920.0330999997,5717349.2764 L 593731.2165000001,5717347.753799999 L 593437.3164999997,5717341.6599 L 593202.1739999996,5717336.8639 L 593039.7205999997,5717334.571799999 L 592876.7100999998,5717331.877800001 L 592743.2898000004,5717329.408 L 592715.6098999996,5717328.896600001 L 592617.4325000001,5717327.7535 L 592617.6257999996,5717317.294 L 592647.2715999996,5715701.421599999 L 592662.2803999996,5714883.283299999 L 592676.6147999996,5714073.4339000005 L 592697.4539000001,5712943.6921 L 592707.0900999997,5712438.8177000005 L 592708.2821000004,5712197.7016 L 592718.6860999996,5711659.8704 L 592726.3311000001,5711264.950099999 L 592726.8191,5711255.9713 L 592737.0146000003,5710832.1953 L 592739.8135000002,5710452.0535 L 592794.0727000004,5707595.7819 L 592815.3388999999,5707596.252 L 592871.9713000003,5704355.768200001 L 592849.3904999997,5704355.140000001 L 592849.5444999998,5704332.256999999 L 592854.6459999997,5704001.275599999 L 592854.9954000004,5703958.272399999 L 592859.5473999996,5703838.4256 L 592863.8942,5703539.426000001 L 592865.2927999999,5703366.5973000005 L 592868.3234999999,5703311.2708 L 592867.1941,5703204.0622000005 L 592870.8552000001,5703155.468 L 592871.4080999997,5703054.0897 L 592875.5917999996,5702995.953400001 L 592874.4623999996,5702888.7458999995 L 592881.8667000001,5702680.578199999 L 592880.7318000002,5702573.3696 L 592883.6610000003,5702519.952199999 L 592888.0017999997,5702258.0448 L 592891.6069,5702192.2245000005 L 592894.4267999995,5701939.8050999995 L 592898.1926999995,5701889.303300001 L 592897.1552999998,5701790.974300001 L 592899.3663999997,5701764.592599999 L 592899.8870000001,5701755.1053 L 592898.0456999997,5701732.354699999 L 592897.9063999997,5701716.139799999 L 592898.3550000004,5701684.2557 L 592898.7669000002,5701643.8871 L 592899.7559000002,5701616.403899999 L 592899.3574000001,5701600.1745 L 592900.4527000003,5701584.792099999 L 592903.0382000003,5701560.9999 L 592903.2489999998,5701552.5287999995 L 592903.1796000004,5701502.0887 L 592903.8737000003,5701470.476 L 592905.0181999998,5701407.2358 L 592904.9995999997,5701388.711100001 L 592905.6042999998,5701377.679199999 L 592907.6452000001,5701298.033500001 L 592907.6376999998,5701255.8321 L 592907.5850999998,5701200.2415 L 592907.6971000005,5701174.7798999995 L 592907.1155000003,5701150.405200001 L 592907.3284,5701134.930199999 L 592914.2028000001,5700753.0 L 592937.0427000001,5699493.270400001 L 592966.3364000004,5697895.6315 L 593663.0537999999,5697910.6985 L 594594.7573999995,5697929.6021 L 596223.2998000002,5697961.569399999 L 597533.0164000001,5697986.1142 L 597558.1266000001,5697984.496099999 L 597849.9249999998,5697992.4329 L 599478.8804000001,5698023.1731 L 601108.2132000001,5698054.4387 L 602003.0433999998,5698071.319800001 L 602136.0257000001,5698073.5877 L 602718.9296000004,5698084.4322 L 602736.2690000003,5698084.371099999 L 602758.9512,5698084.6162 L 604200.3854999999,5698117.365700001 L 604364.3672000002,5698120.3144000005 L 605991.0229000002,5698152.1808 L 607620.5855,5698186.2095 L 607716.5780999996,5698188.8868 L 607822.1821999997,5698183.640000001 L 607905.8096000003,5698182.240499999 L 607920.6640999997,5698189.5945 L 607946.4572999999,5698194.0132 L 608025.3866999997,5698196.322000001 L 609247.1209000004,5698221.059 L 610649.3383,5698249.445900001 L 610754.4907999998,5698251.589 L 610876.7701000003,5698254.084799999 L 612506.4413000001,5698287.1106 L 612576.1372999996,5695051.971100001 L 612648.7763999999,5691835.017100001 L 612649.1985999998,5691821.480799999 L 612650.0108000003,5691809.6457 L 612650.7296000002,5691799.0956999995 L 612676.5015000002,5690612.421399999 L 612716.3595000003,5688690.855799999 L 612718.2005000003,5688583.8561 L 612752.7198999999,5686961.266799999 L 612768.8579000002,5686285.207 L 612774.5066999998,5686048.6348 L 612774.5602000002,5685992.5879999995 L 612775.6343,5685954.6095 L 612782.1371999998,5685650.156400001 L 612822.6365,5683754.178300001 L 612830.75,5683550.4322999995 L 612833.0575000001,5683164.7480999995 L 612834.0787000004,5682994.113600001 L 612839.8476,5682723.191500001 L 612829.7067,5682321.1329 L 612844.3677000003,5682134.1909 L 612860.2203000002,5682095.1668 L 612864.8323999997,5682074.921499999 L 612958.7894000001,5679340.730699999 L 612965.8452000003,5679130.932499999 L 612974.2655999996,5678864.352499999 L 612999.9859999996,5678865.874399999 L 613173.9138000002,5678891.933800001 L 613194.5564000001,5677944.199899999 L 613205.5608999999,5677650.526799999 L 613205.1051000003,5677530.4003 L 613214.9133000001,5677128.262800001 L 613218.0762999998,5676998.6208999995 L 613216.9512,5676982.548599999 L 613216.7971000001,5676982.459799999 L 613230.4649999999,5676612.787599999 L 613264.1442999998,5675701.817600001 L 613191.8035000004,5675700.5308 L 612922.9321999997,5675695.7347 L 612282.9029000001,5675684.3192 L 612059.7573999995,5675680.335000001 L 612059.7339000003,5675680.0955 L 611984.1431,5675675.046800001 L 611346.5977999996,5675664.9451 L 611224.8499999996,5675662.9166 L 611220.3743000003,5675667.545499999 L 610005.2993000001,5675643.6379 L 609965.1699000001,5675642.8817 L 609071.5892000003,5675626.0824 L 609014.0722000003,5675625.001599999 L 608412.9885,5675613.6842 L 608383.9927000003,5675609.210100001 L 608017.4340000004,5675611.1272 L 607865.3504999997,5675611.443299999 L 607818.5623000003,5675610.780300001 L 607661.6557999998,5675605.364600001 L 607467.3909999998,5675598.6614 L 606747.6495000003,5675573.8124 L 605895.4987000003,5675561.001499999 L 605126.7718000002,5675549.4275 L 605124.9149000002,5675494.5482 L 605140.3832,5673080.5711 L 605140.5412999997,5673074.635500001 L 605140.7547000004,5673066.456800001 L 605185.9291000003,5672241.158500001 L 605227.9485999998,5670651.2717 L 605253.2755000005,5669025.9658 L 605226.1451000003,5669025.5988 L 605194.8783999998,5669029.897600001 L 605185.0625999998,5669026.360300001 L 605154.1837999998,5669023.6822 L 604794.8913000003,5669037.8872 L 603668.9209000003,5669055.7546999995 L 603235.8446000004,5669038.057700001 L 603130.8213999998,5669033.6852 L 603085.4265999999,5669031.7939 L 602916.6890000002,5669024.7642 L 602706.4567,5669016.0052000005 L 602598.0613000002,5669011.4882 L 602019.3448000001,5668936.0282000005 L 602013.8890000004,5668936.083900001 L 602003.7756000003,5668936.182700001 L 601993.6639,5668936.2851 L 601983.5505999997,5668936.3838 L 601973.4352000002,5668936.4879 L 601963.3218999999,5668936.5867 L 601953.2111999998,5668936.6864 L 601943.0969000002,5668936.787799999 L 601932.9862000002,5668936.887499999 L 601922.8735999996,5668936.9925999995 L 601912.7602000004,5668937.0912999995 L 601902.6458999999,5668937.1927000005 L 601892.5351999998,5668937.292400001 L 601882.4217999997,5668937.391100001 L 601872.3065,5668937.495200001 L 601862.1930999998,5668937.593900001 L 601852.0815000003,5668937.6963 L 601841.9682,5668937.795 L 601831.8537999997,5668937.896299999 L 601821.7422000002,5668937.9988 L 601811.6288000001,5668938.0974 L 601801.5144999996,5668938.198799999 L 601791.4038000004,5668938.2984 L 601781.2911999999,5668938.4035 L 601771.1777999997,5668938.5022 L 601761.0635000002,5668938.603499999 L 601750.9528000001,5668938.703199999 L 601740.8393999999,5668938.8018 L 601730.7241000002,5668938.9059 L 601720.6135,5668939.0056 L 601710.4990999997,5668939.106899999 L 601700.3858000003,5668939.205499999 L 601690.2714,5668939.3069 L 601680.1596999997,5668939.4092 L 601670.0454000002,5668939.510500001 L 601659.932,5668939.609099999 L 601649.8241999997,5668939.709799999 L 601639.7098000003,5668939.8112 L 601629.5954999998,5668939.9124 L 601619.4811000004,5668940.013699999 L 601609.3704000004,5668940.113299999 L 601599.256,5668940.2147 L 601589.1426999997,5668940.3133000005 L 601579.0301000001,5668940.418299999 L 601568.9167999998,5668940.516799999 L 601558.8024000004,5668940.6182 L 601548.6917000003,5668940.717800001 L 601538.5784,5668940.816400001 L 601528.4630000005,5668940.920399999 L 601518.3497000001,5668941.0189 L 601508.2407,5668941.122199999 L 601498.1272999998,5668941.220799999 L 601488.0120000001,5668941.3248 L 601477.9013999999,5668941.4244 L 601467.7869999995,5668941.525599999 L 601457.6737000002,5668941.6241999995 L 601447.5620999997,5668941.726399999 L 601437.4477000004,5668941.8277 L 601427.3333999999,5668941.929 L 601417.2200999996,5668942.0275 L 601407.1084000003,5668942.1296999995 L 601396.9950000001,5668942.2283 L 601386.8797000004,5668942.3322 L 601376.7691000002,5668942.4318 L 601366.6584000001,5668942.531300001 L 601356.5439999998,5668942.6325 L 601346.4334000004,5668942.732100001 L 601336.3180999998,5668942.835999999 L 601326.2046999997,5668942.934599999 L 601316.0904000001,5668943.035800001 L 601305.9797,5668943.135299999 L 601295.8652999997,5668943.236500001 L 601285.7510000002,5668943.3377 L 601275.6393999998,5668943.4399999995 L 601265.5259999996,5668943.5385 L 601255.4117,5668943.639599999 L 601245.3010999998,5668943.7392 L 601235.1857000003,5668943.8431 L 601225.0750000002,5668943.942600001 L 601214.9633999998,5668944.0448 L 601204.8501000004,5668944.143300001 L 601194.7346999999,5668944.247099999 L 601184.6213999996,5668944.3456 L 601174.5097000003,5668944.447699999 L 601164.3964,5668944.5462 L 601154.2819999997,5668944.647500001 L 601144.1704000002,5668944.749600001 L 601134.0560999997,5668944.8507 L 601123.9428000003,5668944.949200001 L 601113.8310000002,5668945.0514 L 601103.7176999999,5668945.149900001 L 601093.6023000004,5668945.253699999 L 601083.4918,5668945.3531 L 601073.3800999997,5668945.4553 L 601063.2668000003,5668945.5538 L 601053.1524999999,5668945.6548999995 L 601043.0406999998,5668945.757099999 L 601032.9264000002,5668945.858200001 L 601022.8130999999,5668945.956599999 L 601012.7015000004,5668946.058700001 L 601002.5882000001,5668946.157199999 L 600992.4727999996,5668946.261 L 600982.3620999996,5668946.360400001 L 600972.2478,5668946.4615 L 600962.1343999999,5668946.559900001 L 600952.0228000004,5668946.6621 L 600941.9111000001,5668946.7641 L 600921.6824000003,5668946.9662999995 L 600911.5718,5668947.0658 L 600901.4565000003,5668947.169600001 L 600891.3432,5668947.267999999 L 600881.2315999996,5668947.369999999 L 600871.1182000004,5668947.4684 L 600861.0038999999,5668947.569499999 L 600850.8921999997,5668947.671599999 L 600840.7779000001,5668947.772600001 L 600830.6645,5668947.870999999 L 600820.5528999995,5668947.973099999 L 600810.4422000004,5668948.0724 L 600800.3268999998,5668948.176200001 L 600790.2136000004,5668948.274499999 L 600780.1019000001,5668948.376700001 L 600769.9875999996,5668948.477700001 L 600759.8743000003,5668948.576099999 L 600749.7615999999,5668948.6808 L 600739.6481999997,5668948.779100001 L 600729.5339000002,5668948.880100001 L 600719.4232999999,5668948.979499999 L 600709.3088999996,5668949.080600001 L 600699.1946,5668949.181600001 L 600689.0829999996,5668949.283600001 L 600678.9697000002,5668949.381899999 L 600668.858,5668949.483999999 L 600658.7426000005,5668949.5877 L 600648.6320000002,5668949.687100001 L 600638.5176999997,5668949.788000001 L 600628.4044000003,5668949.886399999 L 600618.2927000001,5668949.988299999 L 600608.1782999998,5668950.089400001 L 600598.0640000002,5668950.190300001 L 600587.9534,5668950.2897 L 600577.8391000004,5668950.3906 L 600567.7247000001,5668950.491599999 L 600557.6130999997,5668950.593599999 L 600547.4987000003,5668950.694599999 L 600537.3854,5668950.7929 L 600527.2764999997,5668950.8959 L 600517.1632000003,5668950.994200001 L 600507.0477999998,5668951.0978999995 L 600496.9345000004,5668951.1961 L 600486.8228000002,5668951.2981 L 600476.7084999997,5668951.3991 L 600466.5952000003,5668951.497199999 L 600456.4825999998,5668951.6019 L 600446.3691999996,5668951.700200001 L 600436.2549,5668951.801200001 L 600426.1442,5668951.9004 L 600405.9145,5668952.105 L 600395.8038999997,5668952.2042 L 600385.6922000004,5668952.3061 L 599478.0948000001,5668935.9804 L 599299.0780999996,5668932.6732 L 598796.0365000004,5668913.885600001 L 598798.6889000004,5667954.583799999 L 598800.1231000004,5667435.9846 L 598800.8594000004,5667169.4815 L 598832.0292999996,5665658.988299999 L 598820.4802999999,5665658.777899999 L 597199.2951999996,5665629.7875 L 597199.5689000003,5665620.085899999 L 597200.2899000002,5665594.157199999 L 597259.2215999998,5662396.855900001 L 597249.5614999998,5662396.6622 L 595651.8265000004,5662364.843699999 L 595634.7117999997,5662364.5032 L 595634.8888999997,5662354.9781 L 595646.6239999998,5661722.650800001 L 595694.5823999997,5659130.251700001 L 595751.4917000001,5655893.851299999 L 595780.8097999999,5654158.1075 L 595808.3437999999,5652712.4903 L 595807.0389999999,5652655.891000001 L 595806.9331,5652633.2729 L 595810.7105,5652558.5002 L 595837.3607999999,5651036.782299999 L 595866.8718999997,5649462.1723 L 595867.7492000004,5649405.073799999 L 595882.1355999997,5648468.5459 L 595882.2626999998,5648460.2480999995 L 595882.4134,5648451.3013 L 595893.4192000004,5647794.333799999 L 595907.6730000004,5646997.504799999 L 595922.6794999996,5646186.693299999 L 595950.9842999997,5644578.0032 L 595980.1398,5642953.3412 L 596007.3757999996,5641363.596899999 L 596009.1695999997,5640570.6697 L 596012.2915000003,5640146.5711 L 596014.1460999995,5639789.0767 L 596030.8293000003,5639788.255899999 L 596187.9528999999,5639780.454299999 L 596520.2510000002,5639763.9537 L 596597.6360999998,5639760.112 L 596881.9370999997,5639742.788699999 L 597675.7313000001,5639757.8277 L 597942.6963999998,5639762.3083 L 597965.0162000004,5638594.6173 L 597964.9435,5638577.602700001 L 597974.7302999999,5637957.7567 L 598002.5741999997,5636537.0591 L 598016.8397000004,5635757.2316 L 598043.9426999995,5635017.6952 L 598048.1361999996,5634903.259400001 L 598051.0675999997,5634018.7432 L 598058.6103999997,5633596.4114 L 598063.8572000004,5633302.881200001 L 598097.1968999999,5631672.426899999 L 598130.1138000004,5630067.9746 L 598192.2714999998,5626850.455600001 L 598193.2796,5626798.243799999 L 598201.0614999998,5626394.7826000005 L 598201.6456000004,5626364.994999999 L 598196.0608000001,5626338.6713 L 598191.0162000004,5626332.573000001 L 598167.3746999996,5626240.0416 L 598200.4846000001,5625934.5241 L 598201.4902999997,5625816.2565 L 598200.4381999997,5625752.819700001 L 598195.0016000001,5625669.831 L 598201.5903000003,5625664.267999999 L 598211.4079,5625660.0394 L 598245.7532000002,5625658.4077 L 598350.5164000001,5625638.237299999 L 598400.9428000003,5625622.7564 L 598454.6026999997,5625613.6061 L 598517.8465,5625607.5417 L 598547.0614999998,5625602.1566 L 598624.0828,5625605.806 L 598870.6336000003,5625637.5984000005 L 599136.6399999997,5625704.1888999995 L 599206.8491000002,5625725.7158 L 599291.6692000004,5625744.5571 L 599361.8469000002,5625762.917400001 L 599417.2522,5625768.0678 L 599541.5713999998,5625792.225500001 L 599645.2944999998,5625824.539799999 L 599707.9128999999,5625849.9793 L 599765.3039999995,5625862.107100001 L 599824.8136999998,5625864.3474 L 600008.0829999996,5625836.6653 L 600038.9309999999,5625836.022700001 L 600086.4056000002,5625842.850400001 L 600121.0857999995,5625843.4407 L 600123.8574000001,5625834.819399999 L 600230.0044999998,5625885.885500001 L 600282.5747999996,5625893.291999999 L 600379.7494000001,5625877.004799999 L 600412.0744000003,5625865.2190000005 L 600442.6179,5625865.530200001 L 600536.2699999996,5625847.057499999 L 600568.2914000005,5625836.2228999995 L 600648.5998,5625819.7958 L 600704.7307000002,5625802.9882 L 600754.6387999998,5625798.961999999 L 600805.7024999997,5625784.7499 L 600823.4271999998,5625775.653899999 L 600846.9988000002,5625748.370100001 L 600857.3677000003,5625735.8588 L 600868.1047,5625728.741800001 L 600884.5899999999,5625723.4789 L 600909.1157,5625726.088099999 L 601037.9813999999,5625759.098200001 L 601115.2379999999,5625785.0131 L 601214.5154999997,5625847.5962000005 L 601301.6797000002,5625908.401000001 L 601400.5003000004,5625988.8016 L 601471.2130000005,5626058.049000001 L 601585.8039999995,5626155.1515 L 601605.7385,5626175.3005 L 601651.6194000002,5626242.898700001 L 601696.8669999996,5626279.6525 L 601733.5532999998,5626319.985200001 L 601752.9396000002,5626348.408299999 L 601841.8410999998,5626453.096899999 L 601839.7818,5626469.3466 L 601873.7618000004,5626554.248199999 L 601934.7165999999,5626663.6764 L 601948.2925000004,5626683.900900001 L 601957.4826999996,5626711.1555 L 602026.4748999998,5626828.4671 L 602048.0834999997,5626856.545399999 L 602088.5766000003,5626894.931399999 L 602175.8191999998,5626932.5145 L 602245.9656999996,5626947.688999999 L 602273.9841,5626949.297700001 L 602278.6990999999,5626944.474099999 L 602273.7138,5626923.851500001 L 602275.2538000001,5626919.0658 L 602282.5406,5626916.1303 L 602337.5695000002,5626945.454500001 L 602419.6069999998,5627002.484200001 L 602510.5411999999,5627058.158600001 L 602587.2134999996,5627118.7557 L 602618.9183999998,5627138.4605 L 602634.0020000003,5627150.7108 L 602635.6394999996,5627155.468699999 L 602689.3629999999,5627211.846999999 L 602828.4067000002,5627334.7787 L 602930.2874999996,5627402.4298 L 602942.733,5627406.4332 L 602963.2551999995,5627421.482999999 L 603005.5975000001,5627454.1206 L 603076.0476000002,5627497.925000001 L 603178.8557000002,5627533.106899999 L 603214.8707999997,5627539.4153 L 603419.0336999996,5627561.7598 L 603538.7193999998,5627567.4955 L 603567.9304999998,5627562.0944 L 603673.2154000001,5627560.0331 L 603745.0138999997,5627550.3654 L 603770.3257999998,5627537.3725000005 L 603791.6683999998,5627540.0111 L 603844.6924999999,5627529.5942 L 603962.3277000003,5627492.402899999 L 603979.7073999997,5627481.082900001 L 604076.3770000003,5627446.6567 L 604130.3212000001,5627433.357799999 L 604156.5939999996,5627420.674699999 L 604188.2687999997,5627407.6196 L 604206.6024000002,5627396.6129 L 604238.2092000004,5627377.186000001 L 604276.0118000004,5627341.793500001 L 604301.4029000001,5627305.574899999 L 604310.3982999995,5627284.161900001 L 604342.4363000002,5627184.565300001 L 604345.2192000002,5627116.77 L 604342.5186000001,5627102.1601 L 604334.6908999998,5627083.8026 L 604289.0431000004,5627008.8785999995 L 604270.8147,5626970.263 L 604256.625,5626951.9648 L 604250.4351000004,5626938.340600001 L 604247.7681,5626926.9256 L 604224.0436000004,5626879.1369 L 604211.4918999998,5626865.5875 L 604207.0108000003,5626863.0845 L 604178.6917000003,5626862.43 L 604160.9386,5626868.3444 L 604126.2834999999,5626900.5208 L 604102.7796999998,5626904.587099999 L 604096.3532999996,5626898.297599999 L 604099.4357000003,5626888.7181 L 604135.9034000002,5626847.6171 L 604190.1255999999,5626800.5898 L 604293.7133999998,5626698.653999999 L 604449.7150999997,5626558.6085 L 604475.9150999999,5626539.5647 L 604523.8048,5626525.3816 L 604537.9990999997,5626514.093 L 604550.3498,5626508.559599999 L 604733.3596999999,5626366.641000001 L 604793.7060000002,5626326.8796 L 604939.7045,5626234.349400001 L 605030.2098000003,5626189.484999999 L 605060.9977000002,5626182.4783 L 605064.8627000004,5626186.8928 L 605064.0332000004,5626199.305400001 L 605049.5656000003,5626214.7268 L 604979.0310000004,5626253.333000001 L 604867.4829000002,5626324.1854 L 604805.9722999996,5626374.150800001 L 604802.2479999997,5626382.4594 L 604808.9833000004,5626387.7991 L 604855.2647000002,5626372.039000001 L 605031.2920000004,5626291.2804000005 L 605234.9888000004,5626180.319599999 L 605280.8299000002,5626152.792099999 L 605285.5152000003,5626144.7937 L 605342.3233000003,5626132.4198 L 605400.5037000002,5626128.939200001 L 605448.4622,5626121.114499999 L 605547.6199000003,5626082.2037 L 605579.0203999998,5626073.2774 L 605669.4195999997,5626016.3993 L 605675.4133000001,5626013.3967 L 605724.5324999997,5626024.9693 L 605734.7933,5626032.4943 L 605748.8117000004,5626034.8901 L 605766.0844,5626043.614 L 605792.6919,5626062.7359 L 605861.7790000001,5626097.6424 L 605903.3015000001,5626113.096899999 L 605934.5647,5626121.039100001 L 606028.1085999999,5626152.1756 L 606062.5456999997,5626160.0822 L 606091.2380999997,5626166.1493999995 L 606206.8459000001,5626207.544199999 L 606351.1615000004,5626290.201300001 L 606366.9872000003,5625924.063999999 L 606366.8514,5625923.764 L 606428.7769999998,5623764.5024 L 606432.8671000004,5623293.354800001 L 606453.4462000001,5620922.232899999 L 606453.977,5620842.050899999 L 606456.0565999998,5620526.931700001 L 606473.5559999999,5619708.865900001 L 606494.6533000004,5618722.537799999 L 606504.6605000002,5618241.6776 L 606524.5016000001,5617319.994899999 L 606525.1138000004,5617288.561799999 L 606524.9400000004,5617274.9826 L 606593.2335999999,5614051.0327 L 606621.9275000002,5612435.1866 L 606650.7341999998,5610812.6894000005 L 606692.8695999999,5609115.755899999 L 606707.2959000003,5608534.6797 L 606725.0228000004,5607576.853499999 L 606792.8673,5604338.876700001 L 606795.1787,5604090.7333 L 606795.9107999997,5604012.1996 L 606794.3091000002,5604009.7545 L 606794.3198999995,5604008.626 L 606795.1619999995,5603929.4586 L 606852.5937999999,5601084.905099999 L 605698.3051000005,5601061.492000001 L 605227.9242000002,5601052.286599999 L 604075.2451999998,5601029.0381000005 L 603564.4360999996,5601019.0078 L 602465.9677999998,5600997.405300001 L 600828.5177999996,5600965.137 L 600328.7748999996,5600955.2743999995 L 599207.2925000004,5600933.625499999 L 599207.5511999996,5600924.4571 L 599208.0124000004,5600907.9223 L 599208.8438999997,5600873.9377 L 599238.7106999997,5599293.574200001 L 599240.7016000003,5599169.0934 L 599241.7017000001,5599097.357799999 L 599269.6870999997,5597688.797700001 L 599301.6375000002,5596007.512700001 L 599331.1574999997,5594453.6599 L 599352.3777000001,5593280.922 L 599361.7810000004,5592905.9789 L 599361.9943000004,5592897.4617 L 599390.1787999999,5591215.092 L 599464.1741000004,5587979.378799999 L 599444.2252000002,5587979.024499999 L 599439.4678999996,5587795.0077 L 599466.2741,5587778.3281 L 599602.0478999997,5587727.023399999 L 599654.4900000002,5587698.5088 L 599663.8897000002,5587685.7009 L 599681.4636000004,5587634.3651 L 599716.8612000002,5587616.199899999 L 599725.6797000002,5587578.933700001 L 599748.5352999996,5587576.785 L 599794.9802999999,5587521.0066 L 599825.0778000001,5587512.7497000005 L 599870.5443000002,5587515.765699999 L 599895.2032000003,5587534.255999999 L 599927.7487000003,5587577.446 L 599951.256,5587576.555199999 L 599964.8119999999,5587567.206900001 L 600010.9121000003,5587509.2092 L 600014.6464,5587471.357899999 L 600004.3698000005,5587431.114700001 L 600022.1157,5587395.661900001 L 600034.5689000003,5587311.009500001 L 600052.1734999996,5587262.846000001 L 600081.0828,5587232.0404 L 600108.2089999998,5587213.321699999 L 600172.6814000001,5587180.233999999 L 600249.6553999996,5587127.964 L 600282.9013999999,5587116.488399999 L 600362.0118000004,5587116.614499999 L 600454.8865,5587155.9845 L 600491.0643999996,5587181.3444 L 600553.1513999999,5587254.088099999 L 600551.9858999997,5587264.260199999 L 600561.8557000002,5587266.3824000005 L 600577.6013000002,5587283.0613 L 600614.0800000001,5587307.4607 L 600661.7374999998,5587306.957599999 L 600782.3184000002,5587171.6053 L 600809.4172,5587149.709899999 L 600843.4210000001,5587089.9321 L 600888.2786999997,5587065.3191 L 600900.7538000001,5587042.942500001 L 600912.6151999999,5586992.9364 L 600908.3536999999,5586950.406300001 L 600891.6978000002,5586907.048 L 600892.4534999998,5586888.294500001 L 600901.2297,5586877.399 L 600895.6754000001,5586832.341700001 L 600922.0235000001,5586799.659600001 L 600921.2786999997,5586729.766000001 L 600931.1397000002,5586640.0616999995 L 600922.3015999999,5586585.5024999995 L 600896.3198999995,5586531.7608 L 600904.8776000002,5586469.0832 L 600902.7320999997,5586416.6757 L 600889.0403000005,5586383.7827 L 600855.4726999998,5586333.930600001 L 600839.1825000001,5586325.5261 L 600813.9730000002,5586315.3024 L 600782.7597000003,5586263.0462 L 600772.1072000004,5586246.953199999 L 600765.8415999999,5586225.4153 L 600739.5448000003,5586202.1828000005 L 600707.7850000001,5586158.196599999 L 600700.3749000002,5586148.4274 L 600693.5324999997,5586131.9761 L 600691.6402000003,5586118.173 L 600689.2539999997,5586087.8577 L 600693.2578999996,5586060.650599999 L 600699.2898000004,5586045.1779 L 600710.3024000004,5585989.620200001 L 600718.4879000001,5585967.4497 L 600727.7585000005,5585897.608999999 L 600738.5636,5585852.5383 L 600753.8948999997,5585799.9526 L 600781.0470000003,5585753.2798999995 L 600793.4329000004,5585737.7393 L 600826.3032,5585706.096999999 L 600870.9961999999,5585650.8211 L 600886.7822000002,5585626.35 L 600898.9431999996,5585604.936000001 L 600911.2626,5585597.8155000005 L 600918.0811999999,5585596.311899999 L 600947.0284000002,5585599.8244 L 600991.8805999998,5585589.975400001 L 601008.5187999997,5585585.826300001 L 601046.4933000002,5585556.3565 L 601114.4809999997,5585510.683599999 L 601129.3880000003,5585502.3542 L 601140.8537999997,5585495.9518 L 601158.3304000003,5585480.9925999995 L 601194.3428999996,5585446.139 L 601204.3338000001,5585429.830499999 L 601207.8424000004,5585415.6557 L 601214.5059000002,5585385.0865 L 601216.0230999999,5585318.0306 L 601219.8466999996,5585258.577400001 L 601227.9265999999,5585241.6502 L 601247.0307999998,5585185.5305 L 601247.4119999995,5585161.382200001 L 601258.5333000002,5585146.493899999 L 601261.5434999997,5585130.573000001 L 601258.2914000005,5585078.3429000005 L 601255.7149999999,5585060.104599999 L 601257.9435,5585030.217 L 601262.8684,5585014.9135 L 601270.8477999996,5584988.454399999 L 601287.9111000001,5584964.9223 L 601300.9485999998,5584935.8759 L 601306.9798999997,5584920.4036 L 601301.7818999998,5584879.1554000005 L 601307.8431000002,5584820.9516 L 601316.8337000003,5584770.023700001 L 601330.6257999996,5584722.218900001 L 601337.1858999999,5584711.6669 L 601357.1901000002,5584695.4124 L 601365.7670999998,5584680.234099999 L 601381.6344999997,5584663.6995 L 601395.2229000004,5584626.3793 L 601403.4265999999,5584605.8026 L 601410.9450000003,5584595.5568 L 601419.9973999998,5584580.5331 L 601442.6672,5584560.9092 L 601484.5014000004,5584521.073100001 L 601499.3806999996,5584501.0557 L 601511.8156000003,5584490.282500001 L 601540.8377999999,5584455.822899999 L 601576.0455999998,5584434.9585 L 601605.6096999999,5584421.7829 L 601621.8195000002,5584407.4725 L 601661.3970999997,5584379.5711 L 601670.1078000003,5584377.0997 L 601702.0310000004,5584376.285499999 L 601734.1358000003,5584378.171599999 L 601766.8474000003,5584361.7804000005 L 601809.6694,5584340.196799999 L 601829.6328999996,5584335.5403 L 601838.7885999996,5584330.0404 L 601852.7794000003,5584316.0746 L 601877.9774000002,5584280.382200001 L 601915.2346999999,5584228.523700001 L 601936.4665000001,5584208.4406 L 601952.5114000002,5584178.2491999995 L 601960.2406000001,5584142.742799999 L 601959.2023,5584119.722999999 L 601963.7818999998,5584102.200999999 L 601962.4369999999,5584080.133099999 L 601962.1171000004,5583959.7267 L 601965.8443,5583936.6535 L 601964.8942999998,5583906.7992 L 601967.8696999997,5583887.706499999 L 601957.6915999996,5583871.772399999 L 601956.8925000001,5583856.207900001 L 601951.1744999997,5583826.406099999 L 601960.6771999998,5583793.583900001 L 601962.1151,5583779.270400001 L 601970.3154999996,5583758.6931 L 601972.0614,5583728.6526999995 L 601973.1586999996,5583697.3464 L 601979.3991,5583671.3895 L 601988.0785999997,5583650.965299999 L 601991.5521,5583618.8399 L 601989.1975999996,5583606.474400001 L 601987.4752000002,5583593.7828 L 602012.7921000002,5583554.436899999 L 602028.9197000004,5583532.188200001 L 602038.3531999998,5583493.005999999 L 602047.7033000002,5583445.891000001 L 602058.8994000005,5583393.0396 L 602073.0937999999,5583368.586999999 L 602083.0696999999,5583350.6883000005 L 602085.9005000005,5583287.755000001 L 602088.0755000003,5583253.1009 L 602086.6167000001,5583219.9177 L 602076.8552999999,5583153.4626 L 602074.7276999997,5583144.0600000005 L 601176.2055000002,5583153.7491999995 L 599543.5295000002,5583119.6467 L 597274.9855000004,5583019.868100001 L 596276.8076,5582975.911499999 L 594659.4889000002,5583034.9723000005 L 591401.6383999996,5582860.990700001 L 589574.0482999999,5582880.2739 L 589087.4855000004,5582900.263800001 L 588683.0105999997,5582916.8758000005 L 588682.0817,5582918.3782 L 588658.5422999999,5582924.5173 L 588316.3356999997,5582924.096000001 L 588281.3565999996,5582923.2118999995 L 588253.2624000004,5582924.698999999 L 588146.5499,5582917.946599999 L 588137.4672999997,5582919.464 L 587390.0866,5582907.558800001 L 586214.0356000001,5582888.7894 L 585649.4062999999,5582879.7632 L 585303.8723999998,5582873.7203 L 584672.4901,5582860.8771 L 583232.2922999999,5582798.1075 L 583238.3563000001,5582740.8862 L 583239.8348000003,5582726.7247 L 583241.0581,5582715.0593 L 583244.1403000001,5582690.7842 L 583249.1485000001,5582648.384199999 L 583256.0855999999,5582580.1570999995 L 583258.4028000003,5582556.259 L 583261.1026999997,5582519.2491999995 L 583262.2538000001,5582479.1666 L 583262.2884999998,5582475.768200001 L 583263.0299000004,5582402.849099999 L 583264.1819000002,5582334.229900001 L 583266.1140999999,5582285.668500001 L 583267.1997999996,5582268.5825 L 583270.3493999997,5582218.9745000005 L 583278.4444000004,5582116.0589000005 L 583285.3849999998,5582057.0931 L 583291.1639999999,5582008.1347 L 583295.7465000004,5581976.2140999995 L 583303.1166000003,5581924.877800001 L 583315.0670999996,5581860.5087 L 583324.3163999999,5581810.004899999 L 583337.0368999997,5581749.105 L 583338.2295000004,5581743.8584 L 583350.5235000001,5581689.7432 L 583375.1919999998,5581595.3146 L 583396.7810000004,5581521.302200001 L 583413.3553999998,5581465.803300001 L 583449.5317000002,5581366.139900001 L 583485.4483000003,5581267.1887 L 583448.5372000001,5581252.954500001 L 583407.6604000004,5581236.9222 L 583399.966,5581233.698000001 L 583391.6194000002,5581230.755100001 L 583382.5374999996,5581228.052999999 L 583371.7412,5581225.114700001 L 583336.6374000004,5581220.9377 L 583325.0980000002,5581220.933800001 L 583303.9896999998,5581220.6883000005 L 583281.0828,5581220.4936999995 L 583269.5516999997,5581220.370200001 L 583187.0192,5581219.479800001 L 583151.7314999998,5581218.991 L 582711.7756000003,5581213.0396 L 582605.7841999996,5581211.603 L 582485.8372999998,5581209.1514 L 581693.0816000002,5581195.464500001 L 581646.9161999999,5581197.986500001 L 580021.1745999996,5581174.475 L 579817.2633999996,5581170.4899 L 579794.2637,5581170.2546999995 L 578595.5568000004,5581154.4375 L 578391.4027000004,5581151.7379 L 577561.5389999999,5581140.068399999 L 576338.8212000001,5581121.2457 L 575129.0939999996,5581103.1132 L 575108.0362999998,5581103.979499999 L 573496.3876999998,5581080.223300001 L 572712.6020999998,5581068.0295 L 572588.6722999997,5581065.3465 L 571853.3476,5581054.895199999 L 571376.9288999997,5581048.1131 L 571153.9634999996,5581045.1172 L 571141.9362000003,5581045.4673 L 571045.4708000002,5581045.2906 L 570928.4561000001,5581042.441299999 L 570207.5028999997,5581029.863299999 L 569667.7012999998,5581026.398499999 L 569645.5670999996,5581021.0030000005 L 569640.4249,5581013.131100001 L 565857.6742000002,5580957.7796 L 561757.6561000003,5580897.2677 L 561144.4190999996,5580888.1709 L 556978.8252999997,5580863.4331 L 556266.2224000003,5580859.148499999 L 556354.8825000003,5574578.0174 L 556357.3109999998,5574556.957800001 L 556348.6798999999,5574496.2182 L 556355.1304000001,5574340.3355 L 556376.5621999996,5572273.826300001 L 556388.4708000002,5571125.397 L 554900.8918000003,5571117.6787 L 554694.8054,5571115.1108 L 554639.8526999997,5571114.4257 L 552455.3678000001,5571087.1216 L 550215.9380999999,5571058.974099999 L 549748.9497999996,5571053.0853 L 547977.5462999996,5571030.6776 L 547976.5171999997,5571030.665100001 L 547355.1201999998,5571038.829500001 L 546595.3569,5571048.8004 L 546595.2427000003,5571059.004000001 L 543307.1801000005,5571034.491599999 L 543303.0910999998,5572640.0655000005 L 541887.4439000003,5572637.7772 L 539283.1553999996,5572633.3958 L 538936.4209000003,5572632.7958 L 538397.6958999997,5572631.8561 L 538396.4687000001,5572909.262599999 L 538386.2572999997,5575214.5714 L 538376.2582999999,5577471.212400001 L 535544.8075000001,5577457.1799 L 535116.3107000003,5577455.3259 L 535114.3724999996,5578027.168099999 L 535105.4529999997,5580666.3211 L 535105.3997999998,5580667.755799999 L 534356.5060999999,5580650.6305 L 534343.8077999996,5580650.340299999 L 533724.4698999999,5580627.751499999 L 533455.6519999998,5580618.1501 L 533457.9435999999,5580802.985200001 L 533464.4425999997,5581327.179300001 L 533459.3376000002,5582129.4254 L 534104.0322000002,5582139.639900001 L 535078.6039000005,5582155.056299999 L 535072.1463000001,5582240.500700001 L 535085.9153000005,5582240.656199999 L 535076.5383000001,5584121.524800001 L 535072.7059000004,5584891.032400001 L 535065.5969000002,5586316.6263 L 535061.5710000005,5587123.8631 L 533446.4892999995,5587126.9815 L 533426.1385000004,5587127.021199999 L 533407.4128999999,5589054.476 L 533402.7967999997,5589529.6862 L 533383.8103999998,5591584.2863 L 533378.1878000004,5592192.8245 L 533360.9337999998,5594059.671399999 L 533335.8081999999,5596777.4658 L 533334.994,5596844.767200001 L 533331.3135000002,5597149.206499999 L 535417.1177000003,5597048.0945 L 536596.0565999998,5596990.880899999 L 536578.7461000001,5598053.6974 L 536568.4605,5598685.2291 L 536559.1827999996,5599328.5835 L 536547.2205999997,5600157.8934 L 537609.1513,5600149.2751 L 539590.7424999997,5600133.0997 L 539585.5131000001,5601074.1395 L 539572.6832999997,5603380.2305 L 537931.4277999997,5603384.097200001 L 537921.5176999997,5606323.528899999 L 537915.6032999996,5608077.0603 L 537915.4839000003,5608112.4065000005 L 537880.7275999999,5609738.1238 L 537872.1830000002,5611331.882300001 L 537854.1533000004,5614693.2926 L 536096.8520999998,5614690.3927 L 535298.6244000001,5614689.0394 L 534097.1081999997,5614686.9717999995 L 533438.7757000001,5614685.819499999 L 532962.5554,5614684.9759 L 532960.5401999997,5615212.0965 L 532956.1535,5616359.038799999 L 532943.8607999999,5619571.2454 L 532951.7037000004,5619843.6833 L 532955.0138999997,5619958.617900001 L 532958.7933999998,5620089.923900001 L 532848.3644000003,5621571.187899999 L 532860.6191999996,5622361.0745 L 532899.2134999996,5624848.3791000005 L 532909.2247000001,5625942.467599999 L 532909.2022000002,5625945.369899999 L 532097.2407999998,5625915.629899999 L 532092.3459000001,5626233.634299999 L 532082.4552999996,5626232.303200001 L 532068.2352999998,5626243.5549 L 532065.4973999998,5626258.521600001 L 532070.3877999997,5626272.802100001 L 532070.6276000002,5626301.4278 L 532064.3413000004,5626311.0273 L 532051.3858000003,5626321.627800001 L 532044.9294999996,5626323.1215 L 532056.7537000002,5626582.077500001 L 532054.2072999999,5626761.718699999 L 532324.3666000003,5626758.877699999 L 532886.8814000003,5626752.9551 L 532890.8278999999,5627577.325099999 L 532060.4309999999,5627572.1658 L 531247.8103999998,5627567.0943 L 531251.4748,5629172.2994 L 531251.3536999999,5629206.7611 L 531250.5806999998,5629206.7567 L 531248.8487999998,5629535.032400001 L 531249.1234999998,5629549.610200001 L 531287.9992000004,5631594.1426 L 531249.8031000001,5633725.205600001 L 531213.7100999998,5635738.426999999 L 527900.8916999996,5635684.186000001 L 526361.6725000003,5635658.867000001 L 526348.9110000003,5636364.833699999 L 526346.9616999999,5636472.602700001 L 525531.4485999998,5636459.159399999 L 525516.9643999999,5637259.4166 L 526158.0462999996,5637269.9757 L 526441.5601000004,5637275.2664 L 526443.4400000004,5638015.657400001 L 526439.5098000001,5638189.4825 L 526437.7516000001,5638267.1437 L 526437.0800999999,5638307.982899999 L 526421.5722000003,5638483.484099999 L 526414.6926999995,5638561.3758000005 L 526409.0504000001,5638879.8388 L 524390.4593000002,5638865.6548 L 524404.7504000003,5639469.805400001 L 524406.8596000001,5639558.9998 L 524393.5908000004,5640363.705600001 L 524425.5062999995,5640513.3531 L 524392.6080999998,5640512.8662 L 523591.95100000035,5640497.694 L 522738.37119999994,5640496.8652 L 522732.75260000024,5642117.1423 L 522733.14969999995,5642205.406400001 L 522734.0286999997,5642400.4342 L 522735.05590000004,5642628.6546 L 522740.0575000001,5643739.0295 L 521097.24430000037,5643721.5252 L 521101.50270000007,5644263.968900001 L 521124.2949000001,5647168.5372 L 521127.7812000001,5647612.8265 L 521132.61099999957,5648228.4802 L 521131.9143000003,5648546.1581999995 L 521132.3356999997,5648546.158299999 L 521133.3404000001,5648546.161599999 L 521135.3362999996,5649548.4673 L 521137.6935999999,5650733.7732 L 521139.00019999966,5651388.507099999 L 521138.03639999963,5652436.601299999 L 521147.1281000003,5652889.273399999 L 521187.28720000014,5654888.975199999 L 521188.51070000045,5654949.9858 L 521193.7460000003,5655210.6581 L 521194.7692,5655261.6667 L 521198.68840000033,5655457.0053 L 521206.9343999997,5655997.371300001 L 521210.1381000001,5656207.194 L 521243.01049999986,5658361.1697 L 521243.6560000004,5658382.0144 L 521242.16139999963,5658446.654999999 L 521240.4665999999,5658456.7787 L 521128.5692999996,5659125.089400001 L 521112.25600000005,5659691.6664 L 521113.2341,5659810.1996 L 521107.0831000004,5659997.9761 L 521105.85030000005,5660035.5853 L 521103.56159999967,5660105.267000001 L 521095.1331000002,5660361.5068 L 521079.9972000001,5660821.737299999 L 521068.29200000037,5660946.5787 L 521028.1648000004,5661390.0328 L 521171.68340000045,5661465.931399999 L 521253.8716000002,5661502.5395 L 521357.1085000001,5661512.726600001 L 521380.5131000001,5661513.3358 L 521379.9258000003,5661519.791099999 L 521378.38769999985,5661529.956900001 L 521375.52440000046,5661545.085100001 L 521372.1512000002,5661559.3116999995 L 521366.43740000017,5661580.931 L 521358.96470000036,5661603.3564 L 521347.1277999999,5661635.3664 L 521312.44120000023,5661727.7765 L 521298.96160000004,5661763.1143 L 521292.7131000003,5661783.832 L 521289.2631999999,5661799.426899999 L 521286.56120000035,5661813.320800001 L 521284.0368999997,5661829.9628 L 521282.5181999998,5661852.4559 L 521282.84800000023,5661879.3598 L 521284.15830000024,5661893.839199999 L 521287.0915000001,5661911.969799999 L 521291.6113999998,5661935.621200001 L 521299.3435000004,5661958.375499999 L 521305.6793999998,5661975.2535 L 521314.6842,5661993.320900001 L 521325.2095999997,5662012.384400001 L 521348.7834000001,5662050.6021 L 521353.7178999996,5662058.4256 L 521369.2340000002,5662081.834899999 L 521418.72140000015,5662161.3072999995 L 521423.62200000044,5662169.1796 L 521430.2399000004,5662179.5878 L 521395.6939000003,5662201.3221 L 521200.6180999996,5662323.9407 L 521123.32349999994,5662372.5781 L 521140.5815000003,5662423.289999999 L 521132.3622000003,5662845.3541 L 521113.0460000001,5663836.624600001 L 521094.3940000003,5664793.7729 L 521082.08079999965,5664912.634 L 521320.78220000025,5665028.9289 L 522242.4079,5665492.243100001 L 523313.5817999998,5666041.2009 L 523166.16330000013,5666384.952 L 523160.71719999984,5666397.6456 L 525083.8991999999,5666362.642000001 L 525188.5350000001,5666360.7334 L 525182.6366999997,5666279.984999999 L 525131.2827000003,5665576.957699999 L 525705.4219000004,5665567.124299999 L 525940.3031000001,5665563.0974 L 525976.8097999999,5666354.0407 L 526732.6622000001,5666389.2136 L 526772.0563000003,5667172.6316 L 527414.0296,5667185.3806 L 527543.4052999998,5667187.9474 L 527544.2748999996,5667185.097999999 L 527549.5105999997,5667102.8862 L 527549.6174999997,5667101.194 L 527594.6889000004,5666393.242799999 L 527657.0374999996,5666393.3627 L 527906.8986999998,5666393.852700001 L 528669.5933999997,5666401.1656 L 530832.7147000004,5666421.809599999 L 530809.5959000001,5668025.7782000005 L 531009.8217000002,5668024.7412 L 533149.4625000004,5668041.471100001 L 533976.5230999999,5668047.759500001 L 533997.7355000004,5668428.925000001 L 534005.5318999998,5668540.601600001 L 534016.5941000003,5668699.073000001 L 534011.9874999998,5669118.7009 L 534011.7460000003,5669150.6963 L 533773.3452000003,5669378.899900001 L 533735.7029999997,5669394.423 L 533653.3748000003,5669390.545600001 L 533579.0049999999,5669425.296599999 L 533450.8406999996,5669498.392200001 L 533341.3756999997,5669593.400800001 L 533246.2914000005,5669678.178200001 L 533137.2473999998,5669675.9011 L 532733.8298000004,5669667.268999999 L 532099.5073999995,5669665.0219 L 530809.8559999997,5669660.409499999 L 530798.4407000002,5671277.8026 L 530798.4400000004,5671277.820699999 L 529123.0503000002,5671224.760299999 L 529122.9216999998,5671239.176100001 L 529133.7187000001,5671274.4453 L 529132.5066,5671320.6393 L 529124.0414000005,5671376.1282 L 529124.2544999998,5671440.794299999 L 529133.2987000002,5671533.7378 L 529098.7854000004,5671525.376499999 L 529043.4655999998,5671517.8434 L 528919.3021999998,5671494.4109000005 L 528908.9711999996,5671494.6631000005 L 528663.7347999997,5671445.3342 L 528661.8992999997,5671447.3309 L 528587.5499,5671437.421 L 528501.8547999999,5671441.7874 L 528486.8898,5671447.151000001 L 528454.2868999997,5671452.147500001 L 528406.0603999998,5671454.3093 L 528319.8609999996,5671448.651699999 L 528258.7986000003,5671436.379000001 L 528152.8871999998,5671400.343900001 L 528145.4397,5671394.4197 L 528069.7626999998,5671359.6274999995 L 527998.4199999999,5671313.419399999 L 527929.9864999996,5671262.3868 L 527925.0778999999,5671262.545600001 L 527867.6328999996,5671198.1786 L 527794.2501999997,5671150.250499999 L 527763.9107999997,5671135.0962000005 L 527730.1896000002,5671121.7546999995 L 527721.2175000003,5671114.1711 L 527718.4188000001,5671117.285800001 L 527703.0795999998,5671112.4132 L 527642.4636000004,5671093.160800001 L 527551.3235999998,5671077.815400001 L 527505.0190000003,5671074.915200001 L 527485.3426999999,5671075.660599999 L 527483.0363999996,5671077.478399999 L 527447.1321999999,5671075.5624 L 527381.4570000004,5671085.3718 L 527232.6885000002,5671122.4892 L 527201.9963999996,5671132.384 L 527198.9692000002,5671130.425100001 L 526955.9754999997,5671200.045499999 L 526861.6182000004,5671225.1877999995 L 526797.1503999997,5671242.362500001 L 526773.8207,5671242.797700001 L 526690.6946999999,5671260.257099999 L 526608.7488000002,5671270.3517 L 526479.8897000002,5671274.890699999 L 526391.6253000004,5671266.156400001 L 526295.5768999998,5671250.966 L 526282.5763999997,5671248.3168 L 526272.0571999997,5671240.5515 L 526051.8618999999,5671234.5132 L 525964.1723999996,5671239.870100001 L 525844.9088000003,5671226.230900001 L 525831.8662,5671226.5298 L 525657.9424,5671192.268999999 L 525550.9172,5671159.169199999 L 525539.1915999996,5671154.581 L 525528.6727,5671146.8155000005 L 525506.0202000001,5671142.418400001 L 525447.3936999999,5671131.0342999995 L 525319.1187000005,5671115.59 L 525240.2536000004,5671114.7315 L 525199.4742999999,5671122.8135 L 525194.1370999999,5671119.844699999 L 525121.3990000002,5671126.967700001 L 525103.5225,5671134.321 L 525090.7810000004,5671127.025699999 L 525090.2470000004,5671126.7214 L 525072.8422999997,5671134.2508000005 L 524944.1714000003,5671146.8004 L 524865.3107000003,5671157.3912 L 524852.2088000001,5671159.151000001 L 524690.9796000002,5671176.574200001 L 524390.5796999997,5671207.229699999 L 524356.9561000001,5671210.661599999 L 524265.2653999999,5671225.1305 L 524259.1816999996,5671225.513599999 L 524289.1460999995,5670442.3881 L 523456.11340000015,5670433.3301 L 523465.0948000001,5671209.123 L 522700.7165999999,5671228.4377 L 522693.9785000002,5671228.6303 L 522420.49739999976,5671224.5416 L 521555.73110000044,5671211.5952 L 521521.3766000001,5671211.0803 L 521132.1069,5671205.2469 L 521088.74340000004,5671204.596899999 L 520997.95129999984,5671203.236199999 L 520933.94269999955,5671200.6105 L 520732.8404000001,5671195.611 L 520722.2603000002,5671195.430500001 L 520696.9985999996,5671195.0074000005 L 520654.89279999956,5671194.2958 L 519969.5103000002,5671182.729499999 L 519453.1730000004,5671178.677200001 L 519447.7492000004,5671648.113299999 L 519490.4582000002,5671671.2645 L 519514.8691999996,5671697.1918 L 519571.26269999985,5671738.7928 L 519589.92059999984,5671762.8543 L 519607.86840000004,5671776.0956 L 519679.45859999955,5671806.7411 L 519705.0669,5671822.468 L 519729.6645999998,5671831.5121 L 519737.0460000001,5671838.1434 L 519807.7583999997,5671878.035700001 L 519850.92009999976,5671898.399900001 L 519861.7466000002,5671897.673699999 L 519875.83440000005,5671906.489700001 L 519889.55289999954,5671909.8762 L 519905.26999999955,5671923.4551 L 519899.0920000002,5671988.1635 L 519890.7503000004,5672020.4015999995 L 519881.94159999955,5672034.486199999 L 519858.83800000045,5672053.4592 L 519859.9944000002,5672079.2542 L 519870.40589999966,5672105.930400001 L 519879.3859000001,5672114.1481 L 519899.1963999998,5672121.6285999995 L 519909.91000000015,5672147.348300001 L 519913.21910000034,5672163.2475000005 L 519926.0881000003,5672179.0723 L 519930.64049999975,5672191.1401 L 519924.4620000003,5672277.590500001 L 519924.0237999996,5672283.735300001 L 519923.7615,5672287.3916 L 519920.7050999999,5672303.344699999 L 519895.75850000046,5672331.26 L 519852.6403000001,5672356.4398 L 519840.54449999984,5672357.8167 L 519812.00100000016,5672373.968800001 L 519801.5125000002,5672376.9169 L 519749.14800000004,5672401.2159 L 519727.00090000033,5672420.5063000005 L 519726.40189999994,5672425.607899999 L 519690.76130000036,5672470.170499999 L 519654.3234000001,5672494.3541 L 519611.25490000006,5672486.730699999 L 519585.5406999998,5672497.437000001 L 519566.2960999999,5672520.853499999 L 519555.93489999976,5672539.7206999995 L 519552.1760999998,5672548.033600001 L 519536.6852000002,5672563.1261 L 519525.8869000003,5672567.043199999 L 519490.60610000044,5672617.010399999 L 519487.4979999997,5672626.592599999 L 519484.8989000004,5672660.6994 L 519481.83690000046,5672676.650599999 L 519487.52610000037,5672711.3235 L 519481.7708999999,5672748.639900001 L 519481.01379999984,5672773.807 L 519487.4601999996,5672783.3127999995 L 519494.9302000003,5672841.869999999 L 519508.4419,5672858.9615 L 519503.8547,5672882.8892 L 519474.76939999964,5672910.5132 L 519453.0066999998,5672938.4011 L 519442.97979999986,5672959.5077 L 519437.15029999986,5672987.2642 L 519441.59700000007,5673025.7664 L 519438.5027999999,5673077.7147 L 519441.39080000017,5673121.024900001 L 519436.09979999997,5673176.4858 L 519430.9382999996,5673192.387599999 L 519430.39269999973,5673249.0699000005 L 519424.50189999957,5673868.4541 L 519421.4625000004,5674159.4725 L 519417.52080000006,5674464.285700001 L 519388.9726999998,5675320.997400001 L 519374.36060000025,5675759.411 L 519347.7485999996,5676922.481899999 L 519353.3343000002,5677090.0118 L 519364.01549999975,5677410.6592 L 519369.1715000002,5677614.5998 L 519371.6144000003,5677711.4231 L 519289.3005999997,5677709.220899999 L 518956.00569999963,5677700.3127 L 518956.0307,5677714.606699999 L 518969.5264999997,5678320.0439 L 518971.77979999967,5678404.1481 L 518971.70249999966,5678509.9134 L 518974.324,5678789.7488 L 518972.82919999957,5679007.661499999 L 518981.03479999956,5679022.8103 L 518973.68400000036,5680030.055500001 L 518975.7507999996,5680893.7403 L 520105.65720000025,5680896.0647 L 520105.75459999964,5680896.0677000005 L 520140.2514000004,5680896.139 L 520339.9428000003,5680896.5425 L 520674.51779999956,5680900.2335 L 520673.5713999998,5681233.4997000005 L 520618.29949999973,5684417.5973000005 L 520568.2224000003,5687301.710999999 L 520565.78330000024,5687442.164899999 L 520539.6826999998,5688944.776699999 L 520605.28920000046,5689697.031400001 L 520599.33019999973,5689741.011499999 L 520597.1786000002,5689834.213300001 L 520534.68369999994,5690663.2162999995 L 520535.04169999994,5690676.203600001 L 520537.33139999956,5690980.034399999 L 520541.2912999997,5690994.624299999 L 520546.6196999997,5691373.6074 L 520535.40919999965,5691458.930199999 L 520529.7555999998,5692240.82 L 520531.6377999997,5692275.020199999 L 520531.7326999996,5692276.7568 L 520532.53780000005,5692280.937899999 L 520556.2028999999,5692404.043400001 L 520577.5022999998,5692598.3967 L 520572.55429999996,5692673.5056 L 520538.10390000045,5692766.4125 L 520529.6646999996,5692832.7992 L 520529.0499999998,5692837.6362 L 520529.0022999998,5692851.2619 L 520525.34619999956,5693910.385500001 L 520523.4829000002,5694429.1578 L 520523.44180000015,5694440.8858 L 520521.8965999996,5694870.993899999 L 520521.8596000001,5694881.3651 L 520513.7522,5697138.054500001 L 520513.7213000003,5697145.6127 L 520545.9759999998,5697146.6986 L 520551.5603,5697146.7191 L 520562.8262,5699208.8039 L 520563.40249999985,5699313.809900001 L 520556.63269999996,5701707.078 L 520565.62320000026,5701732.944700001 L 520559.23869999964,5701772.207 L 520555.2337999996,5701776.8113 L 520559.28809999954,5702052.3094999995 L 520559.02919999976,5702052.309800001 L 520153.5619000001,5702044.853499999 L 519780.28639999963,5702029.1537999995 L 519785.05869999994,5702746.791999999 L 519789.19579999987,5702821.903999999 L 519684.93900000025,5702822.0177 L 519659.11120000016,5702822.046499999 L 519650.3383999998,5702828.6634 L 519624.2583999997,5702837.165999999 L 519591.1359000001,5702841.251700001 L 519576.5131999999,5702847.1095 L 519558.9910000004,5702848.830499999 L 519509.3496000003,5702861.3476 L 519441.29849999957,5702870.176100001 L 518907.3897000002,5702880.117000001 L 518879.4620000003,5703219.018300001 L 518872.2265999997,5703306.8705 L 518842.2866000002,5703670.2009 L 517983.2929999996,5703679.626499999 L 517234.66000000015,5703687.822699999 L 517232.11959999986,5703943.771 L 517226.58220000006,5704502.6172 L 517226.4371999996,5704539.213400001 L 517226.9210999999,5704559.890900001 L 517227.9001000002,5704580.328199999 L 517229.8777999999,5704600.602700001 L 517231.4343999997,5704609.635199999 L 517233.2785,5704620.311799999 L 517238.3262,5704639.263 L 517244.71580000035,5704657.4484 L 517252.39829999954,5704674.997199999 L 517257.8332000002,5704685.2016 L 517238.45969999954,5704704.5701 L 517209.79789999966,5706799.0152 L 517303.76829999965,5706801.2086 L 518327.99230000004,5706825.0776 L 519139.6062000003,5706836.3057 L 520537.4707000004,5706837.5222 L 520538.3459999999,5706837.5219 L 520476.9907999998,5710075.775599999 L 520476.5516999997,5710098.8266 L 520469.37990000006,5710529.1131 L 520467.5142999999,5710640.9693 L 520476.4336000001,5711651.689300001 L 520476.93090000004,5711707.7696 L 520471.9140999997,5711920.7653 L 520439.1973000001,5713309.691500001 L 520458.6830000002,5715386.476600001 L 520469.6688000001,5716557.3288 L 520052.7718000002,5716554.7761 L 520053.00850000046,5717001.6252999995 L 520048.0251000002,5717111.7239 L 520040.8280999996,5717148.880999999 L 520032.2569000004,5717193.1273 L 520005.29169999994,5717266.839299999 L 519995.4653000003,5717346.089299999 L 520002.7262000004,5717428.8632 L 520036.98929999955,5717584.873199999 L 520039.1257999996,5717604.548900001 L 520047.68850000016,5717683.5482 L 520054.9046,5718020.2425 L 520045.6002000002,5718337.3912 L 520044.8624,5718631.509400001 L 520044.8492999999,5718636.0549 L 520041.69710000046,5719801.014599999 L 519577.69969999976,5719795.7151999995 L 518560.06149999984,5719796.609999999 L 518463.1437999997,5719798.2578 L 518417.9901999999,5719792.5096 L 518409.69689999986,5719781.7182 L 515095.5256000003,5719783.4704 L 515087.5058000004,5721898.964 L 515085.42349999957,5722446.9037999995 L 515122.7921000002,5723028.028999999 L 515154.7178999996,5725789.2762 L 515160.24909999967,5726267.8356 L 514648.53949999996,5726263.763800001 L 514297.5270999996,5726259.3961 L 513687.5741999997,5726254.1142 L 512572.11840000004,5726261.692399999 L 512322.1337000001,5726259.5538 L 512307.2605999997,5726263.9647 L 512000.27979999967,5726261.3762 L 511979.16970000044,5726256.957800001 L 511955.77660000045,5726242.071 L 511201.29569999967,5726246.6513 L 510959.9145999998,5726232.5427 L 510846.85089999996,5726212.487 L 510779.71389999986,5726240.189099999 L 510264.82349999994,5726090.734200001 L 510248.3485000003,5726135.443700001 L 510246.19099999964,5727558.4671 L 510241.19820000045,5730848.385500001 L 510238.63069999963,5732537.4067 L 509245.35809999984,5732538.9476 L 506895.2450000001,5732542.4778 L 506886.87119999994,5732542.4911 L 506865.6403999999,5732542.521500001 L 506851.32579999976,5732542.542199999 L 506847.91559999995,5732542.546700001 L 505309.81180000026,5732544.7686 L 505313.96079999954,5733370.7412 L 505320.4145999998,5734643.2327 L 505322.63829999976,5735944.8114 L 504541.0460999999,5735944.231699999 L 504409.02410000004,5735941.858100001 L 504030.16220000014,5735943.2519000005 L 503851.2112999996,5735943.168500001 L 503815.2178999996,5735943.1522 L 503771.0974000003,5735938.371300001 L 503694.0971999997,5735937.479499999 L 503692.1710999999,5737543.1063 L 503683.30289999954,5737542.9559 L 502891.00349999964,5737529.0966 L 502641.9040999999,5737522.9439 L 502586.5445999997,5737509.4639 L 502582.54810000025,5737509.5721 L 502457.5548999999,5737472.012 L 502359.2938000001,5737461.713400001 L 502214.7971999999,5737478.679 L 502089.95100000035,5737500.4504 L 502089.86120000016,5737779.4606 L 502089.7028000001,5738262.7227 L 502096.44739999995,5739179.505899999 L 502106.03780000005,5740483.217499999 L 502106.0851999996,5740489.4899 L 502106.4606999997,5740540.8156 L 502108.3351999996,5740841.2588 L 502113.12229999993,5741608.585200001 L 502113.1442,5741612.2654 L 502116.5031000003,5742150.832699999 L 502063.1377999997,5742405.542199999 L 502086.2114000004,5742439.2031 L 502091.89329999965,5743813.1107 L 502088.2785,5744009.570900001 L 502060.1445000004,5744010.4639 L 501825.9790000003,5744019.6887 L 501438.51489999983,5744034.949999999 L 501117.3738000002,5744041.9243 L 500808.3121999996,5744048.6327 L 500603.4582000002,5744053.075999999 L 500564.2706000004,5744053.9267 L 500535.9556,5744054.5397 L 500436.95469999965,5744056.6854 L 500436.75459999964,5744056.692500001 L 500434.78000000026,5744109.0834 L 500429.5935000004,5744246.7499 L 500419.3037999999,5744519.854599999 L 500413.14499999955,5744683.2817 L 500421.02049999963,5744715.0557 L 500422.4855000004,5744804.998400001 L 500426.4461000003,5745021.823899999 L 500423.97119999956,5745404.8028 L 500416.6518000001,5745465.983999999 L 500392.5334999999,5745570.620200001 L 500394.62799999956,5745610.5546 L 500406.17250000034,5745630.2338 L 500427.4785000002,5745641.642200001 L 500424.5564000001,5745703.951400001 L 500385.28949999996,5746411.9607 L 500386.8502000002,5746411.946900001 L 500498.0921,5746413.025800001 L 500886.37959999964,5746422.8368 L 502054.9622999998,5746438.710000001 L 503210.25289999973,5746419.4646000005 L 503556.9621000001,5746414.553400001 L 503654.0007999996,5746414.8312 L 503905.1880999999,5746456.2125 L 504201.8359000003,5746457.2984 L 505375.0153999999,5746461.568700001 L 506786.2394000003,5746461.1097 L 506933.8953999998,5746461.056299999 L 507525.8439999996,5746452.5918000005 L 507733.2002999997,5746449.782199999 L 508012.2664999999,5746445.996200001 z" /></g></g></svg>